<?xml version="1.0" encoding="UTF-8" standalone="no"?>
<!-- Created with Inkscape (http://www.inkscape.org/) -->

<svg
   xmlns:dc="http://purl.org/dc/elements/1.1/"
   xmlns:cc="http://creativecommons.org/ns#"
   xmlns:rdf="http://www.w3.org/1999/02/22-rdf-syntax-ns#"
   xmlns:svg="http://www.w3.org/2000/svg"
   xmlns="http://www.w3.org/2000/svg"
   xmlns:sodipodi="http://sodipodi.sourceforge.net/DTD/sodipodi-0.dtd"
   xmlns:inkscape="http://www.inkscape.org/namespaces/inkscape"
   width="600"
   height="600"
   viewBox="0 0 158.75 158.75"
   version="1.1"
   id="svg4426"
   inkscape:version="0.92.3 (2405546, 2018-03-11)"
   sodipodi:docname="logo-white.svg">
  <defs
     id="defs4420" />
  <sodipodi:namedview
     id="base"
     pagecolor="#ffffff"
     bordercolor="#666666"
     borderopacity="1.0"
     inkscape:pageopacity="0"
     inkscape:pageshadow="2"
     inkscape:zoom="0.31193721"
     inkscape:cx="289.9182"
     inkscape:cy="753.71992"
     inkscape:document-units="mm"
     inkscape:current-layer="layer1"
     showgrid="false"
     inkscape:pagecheckerboard="true"
     units="px"
     inkscape:showpageshadow="false"
     inkscape:window-width="1319"
     inkscape:window-height="713"
     inkscape:window-x="47"
     inkscape:window-y="27"
     inkscape:window-maximized="1" />
  <metadata
     id="metadata4423">
    <rdf:RDF>
      <cc:Work
         rdf:about="">
        <dc:format>image/svg+xml</dc:format>
        <dc:type
           rdf:resource="http://purl.org/dc/dcmitype/StillImage" />
        <dc:title></dc:title>
      </cc:Work>
    </rdf:RDF>
  </metadata>
  <g
     inkscape:label="Layer 1"
     inkscape:groupmode="layer"
     id="layer1"
     transform="translate(0,-138.25)">
    <g
       id="g4315"
       transform="matrix(0.05344309,0,0,-0.05344209,-709.07227,633.5827)"
       inkscape:export-xdpi="145.42978"
       inkscape:export-ydpi="145.42978"
       style="fill:#ffffff">
      <path
         inkscape:connector-curvature="0"
         id="path1416"
         style="display:inline;fill:#ffffff;fill-opacity:1;fill-rule:nonzero;stroke:none"
         d="m 14988.7,6869.3 -84.9,107.6 84.9,107.5 85,-107.5 z m 148.6,131.9 c -8.6,0 -16.1,-4.4 -20.4,-11 v 20.1 c 0,0 -7.6,-6.7 -20.9,-13.2 l -91.7,116.2 c -3.9,4.9 -9.6,7.6 -15.6,7.6 -6,0 -11.7,-2.7 -15.5,-7.6 l -85.2,-107.8 c -1.7,3.6 -5.5,6.2 -10,6.2 -6.1,0 -11,-4.6 -11,-10.4 v -9.4 h -15.8 v 0.7 c 0,6.1 -4.9,11 -11,11 -6.1,0 -11,-4.9 -11,-11 v -0.7 h -468.3 c -9.1,0 -16.4,-6.7 -16.4,-15 0,-8.3 7.3,-15 16.4,-15 h 4.7 v -56.6 -4 -12.1 c 0,-2.8 2.6,-5.1 5.7,-5.1 h 7.9 c 3.2,0 5.7,2.3 5.7,5.1 v 12.1 h 15.5 v -12.1 c 0,-2.8 2.5,-5.1 5.6,-5.1 h 8 c 3.1,0 5.7,2.3 5.7,5.1 v 12.1 4 56.6 h 409.5 v -0.8 c 0,-6 4.9,-10.9 11,-10.9 6.1,0 11,4.9 11,10.9 v 0.8 h 15.8 v -9.5 c 0,-5.7 4.9,-10.3 11,-10.3 4.5,0 8.3,2.5 10,6.2 l 85.2,-107.8 c 3.8,-4.9 9.5,-7.7 15.5,-7.7 6,0 11.7,2.8 15.6,7.7 l 91.7,116.2 c 13.3,-6.5 20.9,-13.2 20.9,-13.2 v 20.1 c 4.3,-6.7 11.8,-11.1 20.4,-11.1 13.4,0 24.3,10.9 24.3,24.4 0,13.4 -10.9,24.3 -24.3,24.3" />
      <path
         inkscape:connector-curvature="0"
         id="path1418"
         style="display:inline;fill:#ffffff;fill-opacity:1;fill-rule:nonzero;stroke:none"
         d="m 14878.4,7106.6 v 0 c -0.6,-0.5 -183.9,-0.7 -379.2,174 -153.7,137.5 -291.5,365.5 -347.9,535.4 65.4,-168.2 211.1,-398.7 359.4,-526.9 205.3,-177.5 368.5,-181.6 367.7,-182.5 z m -628.8,795.4 c -38.4,74.8 -33.1,147 -33.1,147 0,0 -8.4,-19 -9.3,-47.4 -1.7,-52.5 -27.6,-139.2 -44.4,-187.1 0.4,2.8 40.6,126.2 35.5,208.2 -5.1,82 -79.4,162.9 -116,153.3 -37.7,-9.9 -108.9,-98.9 -106.5,-157.7 11,-27.1 53.2,-73.9 54.1,-78.3 -13.4,10.2 -44.9,27.1 -62.9,56.5 10.6,-29.9 29.2,-175 65.2,-256.7 40.2,-44.7 151.4,-123 201.8,-141 -53.3,16 -107.3,40.2 -136.1,61.3 -30.8,22.5 -57.8,40.2 -77.2,38.3 19.9,-5.3 27.4,-14.9 61.7,-87.7 34.2,-72.9 121,-202.5 159,-237.3 46.4,-25.9 179,-55.6 210.3,-52.5 v 0 c -30.4,-7.5 -118,17.9 -175.6,5.2 30.1,4.8 51.9,-29.4 84.8,-57.9 32.9,-28.4 150.2,-52 197.1,-42.2 -27.9,-10.7 -95.5,-10.7 -95.5,-10.7 28.9,-3.7 91.4,-30.2 91.4,-30.2 0,0 43,3.7 60.5,5.4 0.5,-0.3 1,-0.6 1.4,-0.9 -17.1,-6.8 -21.7,-13.2 -20.4,-24.1 2.5,10.9 24.1,12.8 41.9,11.8 47.4,-26.2 89.9,-42.7 123.3,-53 36.8,-11.4 66.6,-16.7 85.2,-19.1 10.8,-1.4 19,-2 23.9,-2.2 9.6,-0.5 10,-0.2 11.1,0.6 l 0.3,0.2 0.3,0.3 1.5,1.8 -0.8,2.1 c -0.9,2.2 -2.6,2.4 -5.7,2.7 -30,3 -117.4,17.6 -231.5,85.6 -15.5,19.6 -14.9,40.5 -14.9,40.5 l -6.3,-24.9 c 0,0 -11.3,47.1 -17.2,57.9 -5.9,10.7 -40.2,60.8 -52.2,92.3 0,0 6.5,-60.8 -1.3,-96.9 0,0 1.3,96.9 -15.5,124.7 -16.8,27.8 -79.1,100 -83.1,124.8 0,0 -1.9,-46.9 -11.4,-74.2 0.7,38.4 8.1,81.8 -30.8,131 -39,49.2 -73.6,119.3 -64.8,141 -22.7,-27.1 -48.3,-96.6 -62.4,-124.8 0,0 30.4,83.2 41.7,134.6 -5.5,13.5 -38.7,104.8 -77.1,179.7" />
      <path
         inkscape:connector-curvature="0"
         id="path1420"
         style="display:inline;fill:#ffffff;fill-opacity:1;fill-rule:nonzero;stroke:none"
         d="m 14753.9,7128.5 c -1.4,0.3 -2.7,0.5 -4.1,0.6 -0.4,0 -0.7,0.1 -0.9,0.2 -72.9,-23.1 -120.9,-22.9 -121.2,-22.7 v 0 c -0.4,0.5 42.7,1.8 112.5,27.2 -1.9,0.6 -3.8,1.4 -5.6,2.3 -50.4,-17.9 -87.4,-23.6 -104.9,-25.4 -3.1,-0.3 -4.7,-0.5 -5.6,-2.7 l -0.9,-2.1 1.5,-1.8 0.3,-0.3 0.3,-0.2 c 1.1,-0.8 1.5,-1.1 11.1,-0.6 4.9,0.2 13.1,0.8 23.9,2.2 18.6,2.4 48.5,7.7 85.2,19.1 3.4,1 7,2.2 10.6,3.4 -0.7,0.2 -1.5,0.5 -2.2,0.8" />
      <path
         inkscape:connector-curvature="0"
         id="path1422"
         style="display:inline;fill:#ffffff;fill-opacity:1;fill-rule:nonzero;stroke:none"
         d="m 15408.3,7660.1 c -28.8,-21.1 -82.9,-45.3 -136.2,-61.3 50.4,18 161.6,96.3 201.8,141 36,81.7 54.6,226.8 65.3,256.7 -18.1,-29.4 -49.6,-46.3 -62.9,-56.5 0.8,4.4 43,51.2 54,78.3 2.4,58.8 -68.8,147.8 -106.5,157.7 -36.6,9.6 -110.9,-71.3 -116,-153.3 -5.1,-82 35.1,-205.4 35.5,-208.2 -16.7,47.9 -42.7,134.6 -44.4,187.1 -0.9,28.4 -9.3,47.4 -9.3,47.4 0,0 5.3,-72.2 -33.1,-147 -38.4,-74.9 -71.6,-166.2 -77.1,-179.7 11.4,-51.4 41.7,-134.6 41.7,-134.6 -14.1,28.2 -39.7,97.7 -62.4,124.8 8.8,-21.7 -25.8,-91.8 -64.7,-141 -38.9,-49.2 -31.6,-92.6 -30.8,-131 -9.6,27.3 -11.5,74.2 -11.5,74.2 -4,-24.8 -66.3,-97 -83.1,-124.8 -16.8,-27.8 -15.5,-124.7 -15.5,-124.7 -7.8,36.1 -1.3,96.9 -1.3,96.9 -11.9,-31.5 -46.3,-81.6 -52.2,-92.3 -5.9,-10.8 -17.2,-57.9 -17.2,-57.9 l -6.3,24.9 c 0,0 0.6,-20.9 -14.9,-40.5 -40.8,-24.3 -78.2,-41.8 -110.7,-54.4 1.5,-0.8 3.1,-1.6 4.7,-2.5 64.2,25.2 148,69.9 240.2,149.7 148.3,128.2 294,358.7 359.5,526.9 -56.4,-169.9 -194.3,-397.9 -348,-535.4 -87.9,-78.6 -173.3,-121.8 -240.7,-145.5 0.6,-0.3 1.2,-0.5 1.9,-0.8 0.5,-0.2 0.9,-0.4 1.6,-0.7 0.6,-0.1 1.1,-0.3 1.6,-0.5 0.1,0 0.2,-0.1 0.3,-0.1 28.4,10.2 61.4,24.5 97.2,44.3 17.8,1 39.4,-0.9 41.9,-11.8 1.3,10.9 -3.3,17.3 -20.4,24.1 0.5,0.3 0.9,0.6 1.4,0.9 17.6,-1.7 60.5,-5.4 60.5,-5.4 0,0 62.5,26.5 91.4,30.2 0,0 -67.6,0 -95.5,10.7 46.9,-9.8 164.2,13.8 197.1,42.2 32.9,28.5 54.7,62.7 84.8,57.9 -57.5,12.7 -145.2,-12.7 -175.6,-5.2 v 0 c 31.4,-3.1 163.9,26.6 210.3,52.5 38,34.8 124.8,164.4 159,237.3 34.3,72.8 41.8,82.4 61.7,87.7 -19.4,1.9 -46.4,-15.8 -77.1,-38.3" />
      <path
         inkscape:connector-curvature="0"
         id="path1424"
         style="display:inline;fill:#ffffff;fill-opacity:1;fill-rule:nonzero;stroke:none"
         d="m 15427,8220.2 h -24 l -58.5,48.8 h 24.1 z m -71,0 -58.5,48.8 h 24 l 58.5,-48.8 z m -47,0 -58.5,48.8 h 24 l 58.5,-48.8 z m 0,114 h 24 l -58.5,-48.8 h -24 z m 71,0 -58.5,-48.8 h -24 l 58.5,48.8 z m 47,0 -58.4,-48.8 h -24.1 l 58.5,48.8 z m 27.2,8.2 h -153.3 l -67.6,-56.3 h -399.6 v 3.6 c 0,6.9 -6,12.6 -13.4,12.6 -7.4,0 -13.4,-5.7 -13.4,-12.6 v -3.6 h -9.4 v 3.6 c 0,6.9 -6,12.6 -13.4,12.6 -7.3,0 -13.3,-5.7 -13.3,-12.6 v -3.6 h -9.4 v 3.6 c 0,6.9 -6,12.6 -13.4,12.6 -7.4,0 -13.4,-5.7 -13.4,-12.6 v -3.6 h -331.8 l -23.8,21.6 -23.8,-21.6 h -137 c 11.6,8.9 32.3,26.6 50.2,51.5 -77.1,-44.9 -177.9,-52.8 -216.5,-58.1 38.6,-5.3 139.4,-13.2 216.5,-58.2 -15.7,21.8 -33.4,38.1 -45.4,47.8 h 131.4 l 24.6,-22.4 24.7,22.4 h 330.9 v -3.6 c 0,-6.9 6,-12.6 13.4,-12.6 7.4,0 13.4,5.7 13.4,12.6 v 3.6 h 9.4 v -3.6 c 0,-6.9 6,-12.6 13.3,-12.6 7.4,0 13.4,5.7 13.4,12.6 v 3.6 h 9.4 v -3.6 c 0,-6.9 6,-12.6 13.4,-12.6 7.4,0 13.4,5.7 13.4,12.6 v 3.6 h 398.7 l 68.5,-57.1 h 153.3 l -78.3,65.2 78.3,65.2" />
      <g
         transform="matrix(1.00604,0,0,1.00604,-157.5,-45.000001)"
         id="g1450"
         style="display:inline;fill:#ffffff">
        <path
           inkscape:connector-curvature="0"
           id="path1452"
           style="fill:#ffffff;fill-opacity:1;fill-rule:nonzero;stroke:none"
           d="m 15975.4,7303.27 c -62.7,-151.19 -155.5,-289.55 -271.2,-405.15 -115.6,-115.71 -254,-208.54 -405.1,-271.07 -151,-62.82 -314.5,-94.92 -478.1,-94.82 -163.6,-0.1 -327.1,32 -478.2,94.82 -151.1,62.53 -289.4,155.36 -405,271.07 -115.7,115.6 -208.6,253.96 -271.1,405.15 -62.8,150.99 -94.9,314.5 -94.8,478.11 -0.1,163.51 32,327.02 94.8,478.11 62.5,151.09 155.4,289.55 271.1,405.15 115.6,115.6 253.9,208.44 405,271.06 151.1,62.72 314.6,94.93 478.2,94.73 163.6,0.2 327.1,-32.01 478.1,-94.73 151.1,-62.62 289.5,-155.46 405.1,-271.06 115.7,-115.6 208.5,-254.06 271.2,-405.15 62.7,-151.09 94.8,-314.6 94.7,-478.11 0.1,-163.61 -32,-327.12 -94.7,-478.11 z m 270.7,378.41 c -13.4,11.43 -26.8,24.25 -36.9,40.16 -10,15.9 -16.5,34.89 -16.5,59.54 0,24.55 6.5,43.63 16.5,59.54 10.1,15.9 23.5,28.63 36.9,40.06 26.9,22.86 53.9,40.45 51,66.4 -3,25.94 -33.2,37.27 -64.4,53.67 -15.6,8.15 -31.5,17.69 -44.8,31.01 -13.2,13.32 -23.8,30.52 -29.2,54.48 -5.5,24.05 -3.4,44.13 2.7,61.92 6.3,17.69 16.5,33.2 27.1,47.31 21,28.23 43.4,51.59 34.8,76.24 -8.7,24.65 -40.7,28.93 -74.8,37.88 -34.3,9.14 -70.2,22.56 -91.3,66.79 -10.8,22.26 -13.2,42.25 -11.2,60.93 2.1,18.69 8.7,35.99 15.7,52.19 14.3,32.2 30.9,59.94 17,82 -14,22.07 -46.1,19.09 -81.3,20.18 -35.5,1.19 -73.4,6.26 -103.9,44.73 -15.3,19.18 -22.2,38.17 -24.3,56.86 -2.2,18.68 0.4,36.97 3.7,54.37 6.7,34.59 16.8,65.2 -1.6,83.69 -18.5,18.39 -49.2,8.35 -83.8,1.69 -17.3,-3.38 -35.6,-5.96 -54.3,-3.77 -18.7,2.18 -37.6,8.94 -56.8,24.35 -38.5,30.41 -43.6,68.38 -44.8,103.87 -1.1,35.19 1.9,67.29 -20.1,81.31 -22.1,13.82 -49.8,-2.79 -82,-17 -16.2,-7.06 -33.5,-13.62 -52.2,-15.7 -18.8,-1.99 -38.8,0.39 -61,11.13 -44.2,21.17 -57.6,57.05 -66.8,91.35 -8.9,34.09 -13.2,66.1 -37.8,74.75 -24.8,8.64 -48,-13.72 -76.3,-34.79 -14.2,-10.54 -29.6,-20.78 -47.4,-26.94 -17.8,-6.27 -37.8,-8.35 -61.8,-2.88 -24.1,5.46 -41.2,16 -54.5,29.32 -13.4,13.22 -22.8,29.12 -31,44.73 -16.4,31.21 -27.7,61.52 -53.7,64.41 -25.9,2.88 -43.5,-24.15 -66.4,-50.99 -11.4,-13.42 -24.1,-26.84 -40,-36.88 -16,-9.94 -35,-16.5 -59.6,-16.5 -24.6,0 -43.6,6.56 -59.5,16.5 -16,10.04 -28.7,23.46 -40.2,36.88 -22.7,26.84 -40.4,53.87 -66.4,50.99 -25.9,-2.89 -37.2,-33.2 -53.5,-64.41 -8.3,-15.61 -17.7,-31.51 -31.1,-44.73 -13.4,-13.32 -30.5,-23.86 -54.5,-29.32 -24.1,-5.47 -44.1,-3.39 -61.8,2.88 -17.8,6.16 -33.2,16.4 -47.5,26.94 -28.2,21.07 -51.4,43.43 -76.2,34.79 -24.6,-8.65 -28.9,-40.66 -37.9,-74.75 -9,-34.3 -22.5,-70.18 -66.8,-91.35 -22.1,-10.74 -42.1,-13.12 -60.9,-11.13 -18.6,2.08 -36,8.64 -52.2,15.7 -32.2,14.21 -59.8,30.82 -82,17 -22.1,-14.02 -19.1,-46.12 -20.2,-81.31 -1.2,-35.49 -6.2,-73.46 -44.7,-103.87 -19.2,-15.41 -38.2,-22.17 -56.8,-24.35 -18.6,-2.19 -37,0.39 -54.3,3.77 -34.6,6.66 -65.3,16.7 -83.8,-1.69 -18.4,-18.49 -8.4,-49.1 -1.6,-83.69 3.4,-17.4 5.9,-35.69 3.7,-54.37 -2.1,-18.69 -9,-37.68 -24.3,-56.86 -30.5,-38.47 -68.5,-43.54 -103.9,-44.73 -35.2,-1.09 -67.3,1.89 -81.3,-20.18 -13.9,-22.06 2.7,-49.8 16.9,-82 7.1,-16.2 13.7,-33.5 15.7,-52.19 2.1,-18.68 -0.4,-38.67 -11.1,-60.93 -21.2,-44.23 -57,-57.65 -91.3,-66.79 -34.1,-8.95 -66.1,-13.23 -74.8,-37.88 -8.6,-24.65 13.8,-47.91 34.8,-76.24 10.5,-14.11 20.9,-29.62 27,-47.31 6.2,-17.79 8.3,-37.87 2.8,-61.92 -5.4,-23.96 -16,-41.16 -29.2,-54.48 -13.3,-13.32 -29.2,-22.86 -44.8,-31.01 -31.2,-16.4 -61.5,-27.73 -64.4,-53.67 -2.8,-25.95 24.1,-43.54 51,-66.4 13.4,-11.43 26.9,-24.16 36.8,-40.06 10.1,-15.91 16.5,-34.99 16.5,-59.54 0,-24.65 -6.4,-43.64 -16.5,-59.54 -9.9,-15.91 -23.4,-28.73 -36.8,-40.16 -26.9,-22.76 -53.8,-40.45 -51,-66.4 2.9,-25.94 33.2,-37.17 64.4,-53.57 15.6,-8.25 31.5,-17.7 44.8,-31.02 13.2,-13.42 23.8,-30.51 29.2,-54.57 5.5,-24.05 3.4,-44.03 -2.8,-61.82 -6.1,-17.8 -16.5,-33.2 -27,-47.42 -21.1,-28.23 -43.4,-51.49 -34.8,-76.24 8.7,-24.65 40.7,-28.82 74.8,-37.87 34.3,-9.04 70.1,-22.46 91.3,-66.8 10.7,-22.16 13.2,-42.14 11.1,-60.83 -2,-18.69 -8.6,-36.08 -15.7,-52.18 -14.2,-32.31 -30.8,-59.94 -16.9,-82.1 14,-22.07 46.1,-18.99 81.3,-20.18 35.4,-1.19 73.4,-6.27 103.9,-44.63 15.3,-19.29 22.2,-38.27 24.3,-56.86 2.2,-18.69 -0.4,-37.08 -3.7,-54.37 -6.8,-34.59 -16.8,-65.31 1.6,-83.8 18.5,-18.38 49.2,-8.25 83.8,-1.58 17.3,3.37 35.7,5.86 54.3,3.77 18.6,-2.19 37.6,-8.94 56.8,-24.35 38.5,-30.52 43.5,-68.49 44.7,-103.87 1.1,-35.29 -1.9,-67.39 20.2,-81.31 22.2,-13.92 49.8,2.68 82,16.9 16.2,7.15 33.6,13.61 52.2,15.7 18.8,2.09 38.8,-0.4 60.9,-11.13 44.3,-21.18 57.8,-57.06 66.8,-91.35 9,-34.09 13.3,-66.1 37.9,-74.75 24.8,-8.55 48,13.82 76.2,34.79 14.3,10.64 29.7,20.88 47.5,27.04 17.7,6.16 37.7,8.25 61.8,2.78 24,-5.46 41.1,-16 54.5,-29.22 13.4,-13.22 22.8,-29.22 31.1,-44.83 16.3,-31.21 27.6,-61.43 53.5,-64.41 26,-2.79 43.7,24.15 66.4,50.99 11.5,13.52 24.2,26.94 40.2,36.88 15.9,10.04 34.9,16.5 59.5,16.5 24.6,0 43.6,-6.46 59.6,-16.5 15.9,-9.94 28.6,-23.36 40,-36.88 22.9,-26.84 40.5,-53.78 66.4,-50.99 26,2.98 37.3,33.2 53.6,64.41 8.3,15.61 17.7,31.61 31.1,44.83 13.3,13.22 30.4,23.76 54.5,29.22 24,5.47 44,3.38 61.8,-2.78 17.8,-6.16 33.2,-16.4 47.4,-27.04 28.3,-20.97 51.5,-43.34 76.3,-34.79 24.6,8.65 28.9,40.66 37.8,74.75 9.2,34.29 22.6,70.17 66.8,91.35 22.2,10.73 42.2,13.22 61,11.13 18.7,-2.09 36,-8.55 52.2,-15.7 32.2,-14.22 59.8,-30.82 82,-16.9 22,13.92 19,46.02 20.1,81.31 1.2,35.38 6.3,73.35 44.8,103.87 19.2,15.41 38.1,22.16 56.8,24.35 18.7,2.09 37,-0.4 54.3,-3.77 34.6,-6.67 65.3,-16.8 83.8,1.58 18.4,18.49 8.3,49.21 1.6,83.8 -3.3,17.29 -5.9,35.68 -3.7,54.37 2.1,18.59 9,37.57 24.3,56.76 30.5,38.46 68.4,43.54 103.9,44.73 35.2,1.09 67.3,-1.89 81.3,20.18 13.9,22.16 -2.7,49.79 -17,82.1 -7,16.1 -13.6,33.49 -15.7,52.18 -2,18.69 0.4,38.67 11.2,60.83 21.1,44.34 57,57.76 91.3,66.8 34.1,9.05 66.1,13.22 74.8,37.87 8.6,24.75 -13.8,48.01 -34.8,76.24 -10.6,14.22 -20.8,29.62 -27.1,47.42 -6.1,17.79 -8.2,37.77 -2.7,61.82 5.4,24.06 16,41.15 29.2,54.57 13.3,13.32 29.2,22.77 44.8,31.02 31.2,16.4 61.4,27.63 64.4,53.57 2.9,25.95 -24.1,43.64 -51,66.4" />
      </g>
      <path
         inkscape:connector-curvature="0"
         id="path1502"
         style="display:inline;fill:#ffffff;fill-opacity:1;fill-rule:nonzero;stroke:none"
         d="m 15826.2,7338.9 c -58.1,-140.4 -144.4,-269.1 -252,-376.7 -107.5,-107.6 -236.3,-193.9 -376.7,-252 -140.3,-58.3 -292.1,-88.2 -444.4,-88.1 -152.4,-0.1 -304.2,29.8 -444.5,88.1 -140.4,58.1 -269.1,144.4 -376.7,252 -107.6,107.6 -193.9,236.3 -252,376.7 -58.4,140.4 -88.2,292.2 -88.1,444.5 -0.1,152.3 29.7,304.1 88.1,444.4 58.1,140.4 144.4,269.2 252,376.7 107.6,107.6 236.3,193.9 376.7,252.1 140.3,58.3 292.1,88.1 444.5,88 152.3,0.1 304.1,-29.7 444.4,-88 140.4,-58.2 269.2,-144.5 376.7,-252.1 107.6,-107.5 193.9,-236.3 252,-376.7 58.4,-140.3 88.2,-292.1 88.1,-444.4 0.1,-152.3 -29.7,-304.1 -88.1,-444.5 z m -221.9,1295.8 c -111.4,111.5 -244.8,201 -390.4,261.3 -145.6,60.4 -303.1,91.4 -460.8,91.3 -157.8,0.1 -315.3,-30.9 -460.9,-91.3 -145.5,-60.3 -279,-149.8 -390.4,-261.3 -111.6,-111.5 -201,-244.9 -261.3,-390.5 -60.5,-145.5 -91.5,-303 -91.4,-460.8 -0.1,-157.8 30.9,-315.3 91.4,-460.8 60.3,-145.6 149.7,-279.1 261.3,-390.5 111.4,-111.6 244.9,-201 390.4,-261.3 145.6,-60.5 303.1,-91.5 460.9,-91.3 157.7,-0.2 315.2,30.8 460.8,91.3 145.5,60.3 279,149.7 390.4,261.3 111.6,111.4 201.1,244.9 261.3,390.5 60.5,145.5 91.5,303 91.4,460.8 0.1,157.8 -30.9,315.2 -91.4,460.8 -60.2,145.6 -149.7,279 -261.3,390.5" />
      <g
         id="g5254"
         style="fill:#ffffff">
        <path
           d="m 14950.1,6758 c -13.8,-2.6 -22.8,-18.3 -20.1,-35.4 2.8,-17.2 17.1,-29.1 31.9,-26.3 14.8,2.9 23.7,19.2 20,36.2 -3.7,16.9 -17.9,28.2 -31.8,25.5"
           style="fill:#ffffff;fill-opacity:1;fill-rule:nonzero;stroke:none"
           id="path1426"
           inkscape:connector-curvature="0" />
        <path
           d="m 15211.2,6845.1 c -12.6,-6.2 -17.2,-23.7 -10,-39.5 7.1,-15.8 24.1,-23.5 37.6,-16.9 13.6,6.6 17.9,24.8 9.8,40.1 -8.1,15.4 -24.7,22.5 -37.4,16.3"
           style="fill:#ffffff;fill-opacity:1;fill-rule:nonzero;stroke:none"
           id="path1428"
           inkscape:connector-curvature="0" />
        <path
           d="m 15440.7,6998 c -10.6,-9.3 -10.5,-27.5 0.6,-40.8 11,-13.4 29.4,-16.4 40.8,-6.5 11.3,10 10.8,28.6 -1,41.3 -11.8,12.7 -29.8,15.3 -40.4,6"
           style="fill:#ffffff;fill-opacity:1;fill-rule:nonzero;stroke:none"
           id="path1430"
           inkscape:connector-curvature="0" />
        <path
           d="m 15663.1,7210.3 c -14.7,9.1 -32.7,6.9 -40.6,-4.8 -7.8,-11.8 -2.9,-29.2 11.2,-39.3 14.2,-10 32.7,-8.1 41.1,4.5 8.4,12.5 3,30.4 -11.7,39.6"
           style="fill:#ffffff;fill-opacity:1;fill-rule:nonzero;stroke:none"
           id="path1432"
           inkscape:connector-curvature="0" />
        <path
           d="m 15781.4,7468.1 c -16.6,5 -33.4,-1.9 -37.8,-15.2 -4.5,-13.4 4.8,-29 21.1,-34.9 16.3,-6 33.7,0.7 38.5,15 4.7,14.3 -5.2,30.1 -21.8,35.1"
           style="fill:#ffffff;fill-opacity:1;fill-rule:nonzero;stroke:none"
           id="path1434"
           inkscape:connector-curvature="0" />
        <path
           d="m 15827.8,7748.1 c -17.4,0.5 -31.8,-10.6 -32.6,-24.7 -0.8,-14.1 12.3,-26.7 29.6,-28.2 17.3,-1.4 32.3,9.6 33.2,24.7 0.8,15.1 -12.9,27.7 -30.2,28.2"
           style="fill:#ffffff;fill-opacity:1;fill-rule:nonzero;stroke:none"
           id="path1436"
           inkscape:connector-curvature="0" />
        <path
           d="m 14813,6741.2 c -14.1,-0.8 -25.2,-15.2 -24.7,-32.5 0.5,-17.4 13.1,-31.1 28.2,-30.2 15.1,0.8 26.2,15.9 24.7,33.2 -1.5,17.2 -14.1,30.3 -28.2,29.5"
           style="fill:#ffffff;fill-opacity:1;fill-rule:nonzero;stroke:none"
           id="path1438"
           inkscape:connector-curvature="0" />
        <path
           d="m 15083.6,6792.9 c -13.4,-4.5 -20.2,-21.3 -15.2,-37.9 5,-16.6 20.7,-26.5 35,-21.7 14.4,4.7 21,22.1 15.1,38.4 -6,16.3 -21.6,25.6 -34.9,21.2"
           style="fill:#ffffff;fill-opacity:1;fill-rule:nonzero;stroke:none"
           id="path1440"
           inkscape:connector-curvature="0" />
        <path
           d="m 15330.9,6913.9 c -11.7,-7.8 -13.9,-25.8 -4.7,-40.5 9.2,-14.7 27,-20.2 39.6,-11.8 12.5,8.4 14.4,26.9 4.4,41.1 -10.1,14.2 -27.5,19 -39.3,11.2"
           style="fill:#ffffff;fill-opacity:1;fill-rule:nonzero;stroke:none"
           id="path1442"
           inkscape:connector-curvature="0" />
        <path
           d="m 15579.3,7095.2 c -13.4,11 -31.5,11.2 -40.8,0.6 -9.3,-10.7 -6.8,-28.6 5.9,-40.4 12.7,-11.8 31.3,-12.4 41.3,-1 10,11.3 7,29.7 -6.4,40.8"
           style="fill:#ffffff;fill-opacity:1;fill-rule:nonzero;stroke:none"
           id="path1444"
           inkscape:connector-curvature="0" />
        <path
           d="m 15730.8,7335.3 c -15.8,7.1 -33.3,2.6 -39.5,-10.1 -6.2,-12.6 1,-29.3 16.3,-37.4 15.4,-8.1 33.5,-3.8 40.1,9.8 6.7,13.6 -1.1,30.5 -16.9,37.7"
           style="fill:#ffffff;fill-opacity:1;fill-rule:nonzero;stroke:none"
           id="path1446"
           inkscape:connector-curvature="0" />
        <path
           d="m 15813.9,7606.4 c -17.2,2.8 -32.9,-6.3 -35.5,-20.1 -2.6,-13.8 8.6,-28 25.6,-31.8 16.9,-3.7 33.3,5.2 36.1,20 2.8,14.8 -9.1,29.2 -26.2,31.9"
           style="fill:#ffffff;fill-opacity:1;fill-rule:nonzero;stroke:none"
           id="path1448"
           inkscape:connector-curvature="0" />
        <path
           d="m 13727.7,7586.3 c -2.6,13.8 -18.3,22.9 -35.5,20.1 -17.1,-2.7 -29,-17.1 -26.2,-31.9 2.9,-14.8 19.2,-23.7 36.1,-20 17,3.8 28.3,18 25.6,31.8"
           style="fill:#ffffff;fill-opacity:1;fill-rule:nonzero;stroke:none"
           id="path1454"
           inkscape:connector-curvature="0" />
        <path
           d="m 13775.3,7335.3 c -15.8,-7.2 -23.6,-24.1 -16.9,-37.7 6.6,-13.6 24.7,-17.8 40.1,-9.8 15.3,8.1 22.5,24.8 16.3,37.4 -6.2,12.7 -23.7,17.2 -39.5,10.1"
           style="fill:#ffffff;fill-opacity:1;fill-rule:nonzero;stroke:none"
           id="path1456"
           inkscape:connector-curvature="0" />
        <path
           d="m 13926.8,7095.2 c -13.3,-11.1 -16.4,-29.5 -6.4,-40.8 10,-11.4 28.6,-10.8 41.3,1 12.7,11.8 15.2,29.7 5.9,40.4 -9.3,10.6 -27.4,10.4 -40.8,-0.6"
           style="fill:#ffffff;fill-opacity:1;fill-rule:nonzero;stroke:none"
           id="path1458"
           inkscape:connector-curvature="0" />
        <path
           d="m 14175.2,6913.9 c -11.8,7.8 -29.2,3 -39.3,-11.2 -10,-14.2 -8.1,-32.7 4.4,-41.1 12.6,-8.3 30.4,-2.9 39.6,11.8 9.2,14.7 7,32.7 -4.7,40.5"
           style="fill:#ffffff;fill-opacity:1;fill-rule:nonzero;stroke:none"
           id="path1460"
           inkscape:connector-curvature="0" />
        <path
           d="m 14422.5,6792.9 c -13.3,4.4 -28.9,-4.9 -34.8,-21.2 -6,-16.3 0.6,-33.7 15,-38.4 14.3,-4.8 30,5.1 35,21.7 5.1,16.6 -1.8,33.4 -15.2,37.9"
           style="fill:#ffffff;fill-opacity:1;fill-rule:nonzero;stroke:none"
           id="path1462"
           inkscape:connector-curvature="0" />
        <path
           d="m 14693.1,6741.2 c -14.1,0.8 -26.7,-12.3 -28.2,-29.5 -1.5,-17.3 9.6,-32.4 24.7,-33.2 15.1,-0.9 27.7,12.8 28.2,30.2 0.5,17.3 -10.6,31.7 -24.7,32.5"
           style="fill:#ffffff;fill-opacity:1;fill-rule:nonzero;stroke:none"
           id="path1464"
           inkscape:connector-curvature="0" />
        <path
           d="m 13681.3,7695.3 c 17.3,1.4 30.4,14 29.6,28.1 -0.8,14.1 -15.2,25.2 -32.6,24.7 -17.3,-0.5 -31,-13.1 -30.1,-28.2 0.8,-15.1 15.9,-26.1 33.1,-24.6"
           style="fill:#ffffff;fill-opacity:1;fill-rule:nonzero;stroke:none"
           id="path1466"
           inkscape:connector-curvature="0" />
        <path
           d="m 13762.5,7452.9 c -4.4,13.3 -21.2,20.2 -37.8,15.2 -16.6,-5 -26.5,-20.8 -21.8,-35.1 4.8,-14.3 22.2,-21 38.5,-15 16.3,5.9 25.6,21.5 21.1,34.9"
           style="fill:#ffffff;fill-opacity:1;fill-rule:nonzero;stroke:none"
           id="path1468"
           inkscape:connector-curvature="0" />
        <path
           d="m 13843.1,7210.3 c -14.8,-9.2 -20.2,-27.1 -11.8,-39.6 8.4,-12.6 26.9,-14.5 41.1,-4.5 14.1,10.1 19,27.6 11.2,39.3 -7.8,11.7 -25.8,14 -40.5,4.8"
           style="fill:#ffffff;fill-opacity:1;fill-rule:nonzero;stroke:none"
           id="path1470"
           inkscape:connector-curvature="0" />
        <path
           d="m 14065.4,6998 c -10.6,9.3 -28.5,6.7 -40.3,-6 -11.9,-12.7 -12.4,-31.3 -1.1,-41.3 11.4,-9.9 29.8,-6.9 40.8,6.5 11.1,13.3 11.2,31.5 0.6,40.8"
           style="fill:#ffffff;fill-opacity:1;fill-rule:nonzero;stroke:none"
           id="path1472"
           inkscape:connector-curvature="0" />
        <path
           d="m 14294.9,6845.1 c -12.7,6.2 -29.3,-0.9 -37.4,-16.3 -8.1,-15.3 -3.8,-33.5 9.8,-40.1 13.5,-6.6 30.5,1.1 37.6,16.9 7.2,15.8 2.6,33.3 -10,39.5"
           style="fill:#ffffff;fill-opacity:1;fill-rule:nonzero;stroke:none"
           id="path1474"
           inkscape:connector-curvature="0" />
        <path
           d="m 14556,6758 c -13.9,2.7 -28,-8.6 -31.8,-25.5 -3.7,-17 5.2,-33.3 20,-36.2 14.8,-2.8 29.1,9.1 31.9,26.3 2.7,17.1 -6.3,32.8 -20.1,35.4"
           style="fill:#ffffff;fill-opacity:1;fill-rule:nonzero;stroke:none"
           id="path1476"
           inkscape:connector-curvature="0" />
        <path
           d="m 14544.2,8870.4 c -14.8,-2.8 -23.7,-19.2 -20,-36.1 3.8,-17 17.9,-28.2 31.8,-25.6 13.8,2.7 22.8,18.4 20.1,35.5 -2.8,17.1 -17.1,29 -31.9,26.2"
           style="fill:#ffffff;fill-opacity:1;fill-rule:nonzero;stroke:none"
           id="path1478"
           inkscape:connector-curvature="0" />
        <path
           d="m 14267.3,8778.1 c -13.6,-6.7 -17.9,-24.8 -9.8,-40.2 8.1,-15.3 24.7,-22.4 37.4,-16.3 12.6,6.2 17.2,23.8 10,39.6 -7.1,15.8 -24.1,23.5 -37.6,16.9"
           style="fill:#ffffff;fill-opacity:1;fill-rule:nonzero;stroke:none"
           id="path1480"
           inkscape:connector-curvature="0" />
        <path
           d="m 14024,8616 c -11.3,-9.9 -10.8,-28.6 1.1,-41.3 11.8,-12.7 29.7,-15.2 40.3,-5.9 10.6,9.3 10.5,27.4 -0.6,40.8 -11,13.4 -29.4,16.4 -40.8,6.4"
           style="fill:#ffffff;fill-opacity:1;fill-rule:nonzero;stroke:none"
           id="path1482"
           inkscape:connector-curvature="0" />
        <path
           d="m 13872.4,8400.5 c -14.2,10 -32.7,8.2 -41.1,-4.4 -8.4,-12.6 -3,-30.4 11.8,-39.6 14.7,-9.2 32.7,-7 40.5,4.8 7.8,11.7 2.9,29.2 -11.2,39.2"
           style="fill:#ffffff;fill-opacity:1;fill-rule:nonzero;stroke:none"
           id="path1484"
           inkscape:connector-curvature="0" />
        <path
           d="m 13724.7,8098.7 c 16.6,-5 33.4,1.8 37.8,15.2 4.5,13.3 -4.8,28.9 -21.1,34.9 -16.3,5.9 -33.7,-0.7 -38.5,-15 -4.7,-14.3 5.2,-30.1 21.8,-35.1"
           style="fill:#ffffff;fill-opacity:1;fill-rule:nonzero;stroke:none"
           id="path1486"
           inkscape:connector-curvature="0" />
        <path
           d="m 13678.3,7818.6 c 17.4,-0.5 31.8,10.6 32.6,24.7 0.8,14.1 -12.3,26.7 -29.6,28.2 -17.2,1.5 -32.3,-9.5 -33.1,-24.6 -0.9,-15.1 12.8,-27.8 30.1,-28.3"
           style="fill:#ffffff;fill-opacity:1;fill-rule:nonzero;stroke:none"
           id="path1488"
           inkscape:connector-curvature="0" />
        <path
           d="m 14689.6,8888.3 c -15.1,-0.9 -26.2,-15.9 -24.7,-33.2 1.5,-17.3 14.1,-30.3 28.2,-29.5 14.1,0.8 25.2,15.1 24.7,32.5 -0.5,17.3 -13.1,31 -28.2,30.2"
           style="fill:#ffffff;fill-opacity:1;fill-rule:nonzero;stroke:none"
           id="path1490"
           inkscape:connector-curvature="0" />
        <path
           d="m 14402.7,8833.5 c -14.4,-4.8 -21,-22.2 -15,-38.5 5.9,-16.3 21.5,-25.5 34.8,-21.1 13.4,4.5 20.3,21.2 15.2,37.8 -5,16.6 -20.7,26.6 -35,21.8"
           style="fill:#ffffff;fill-opacity:1;fill-rule:nonzero;stroke:none"
           id="path1492"
           inkscape:connector-curvature="0" />
        <path
           d="m 14140.3,8705.1 c -12.5,-8.3 -14.4,-26.9 -4.4,-41 10.1,-14.2 27.5,-19.1 39.3,-11.2 11.7,7.8 13.9,25.8 4.7,40.5 -9.2,14.7 -27,20.1 -39.6,11.7"
           style="fill:#ffffff;fill-opacity:1;fill-rule:nonzero;stroke:none"
           id="path1494"
           inkscape:connector-curvature="0" />
        <path
           d="m 13920.4,8512.4 c -10,-11.4 -6.9,-29.8 6.4,-40.8 13.4,-11.1 31.5,-11.2 40.8,-0.6 9.3,10.6 6.8,28.6 -5.9,40.4 -12.7,11.8 -31.3,12.4 -41.3,1"
           style="fill:#ffffff;fill-opacity:1;fill-rule:nonzero;stroke:none"
           id="path1496"
           inkscape:connector-curvature="0" />
        <path
           d="m 13798.5,8278.9 c -15.4,8.1 -33.5,3.8 -40.1,-9.7 -6.7,-13.6 1.1,-30.6 16.9,-37.7 15.8,-7.2 33.3,-2.6 39.5,10 6.2,12.7 -1,29.3 -16.3,37.4"
           style="fill:#ffffff;fill-opacity:1;fill-rule:nonzero;stroke:none"
           id="path1498"
           inkscape:connector-curvature="0" />
        <path
           d="m 13692.2,7960.3 c 17.2,-2.7 32.9,6.3 35.5,20.2 2.7,13.8 -8.6,28 -25.6,31.7 -16.9,3.8 -33.2,-5.1 -36.1,-20 -2.8,-14.8 9.1,-29.1 26.2,-31.9"
           style="fill:#ffffff;fill-opacity:1;fill-rule:nonzero;stroke:none"
           id="path1500"
           inkscape:connector-curvature="0" />
        <path
           d="m 15804,8012.2 c -17,-3.7 -28.2,-17.9 -25.6,-31.7 2.6,-13.9 18.3,-22.9 35.5,-20.2 17.1,2.8 29,17.1 26.2,31.9 -2.8,14.9 -19.2,23.8 -36.1,20"
           style="fill:#ffffff;fill-opacity:1;fill-rule:nonzero;stroke:none"
           id="path1504"
           inkscape:connector-curvature="0" />
        <path
           d="m 15730.8,8231.5 c 15.8,7.1 23.6,24.1 16.9,37.6 -6.6,13.6 -24.7,17.9 -40.1,9.8 -15.3,-8.1 -22.5,-24.7 -16.3,-37.4 6.2,-12.6 23.7,-17.2 39.5,-10"
           style="fill:#ffffff;fill-opacity:1;fill-rule:nonzero;stroke:none"
           id="path1506"
           inkscape:connector-curvature="0" />
        <path
           d="m 15544.4,8511.4 c -12.7,-11.8 -15.2,-29.8 -5.9,-40.4 9.3,-10.6 27.4,-10.5 40.8,0.6 13.4,11 16.4,29.4 6.4,40.8 -10,11.4 -28.6,10.8 -41.3,-1"
           style="fill:#ffffff;fill-opacity:1;fill-rule:nonzero;stroke:none"
           id="path1508"
           inkscape:connector-curvature="0" />
        <path
           d="m 15365.8,8705.1 c -12.6,8.4 -30.4,3 -39.6,-11.7 -9.2,-14.7 -7,-32.7 4.7,-40.5 11.8,-7.9 29.2,-3 39.3,11.2 10,14.1 8.1,32.6 -4.4,41"
           style="fill:#ffffff;fill-opacity:1;fill-rule:nonzero;stroke:none"
           id="path1510"
           inkscape:connector-curvature="0" />
        <path
           d="m 15103.4,8833.5 c -14.3,4.8 -30,-5.2 -35,-21.8 -5,-16.6 1.8,-33.3 15.2,-37.8 13.3,-4.4 28.9,4.8 34.9,21.1 5.9,16.3 -0.7,33.7 -15.1,38.5"
           style="fill:#ffffff;fill-opacity:1;fill-rule:nonzero;stroke:none"
           id="path1512"
           inkscape:connector-curvature="0" />
        <path
           d="m 14816.5,8888.3 c -15.1,0.8 -27.7,-12.9 -28.2,-30.2 -0.5,-17.4 10.6,-31.7 24.7,-32.5 14.1,-0.8 26.7,12.2 28.2,29.5 1.5,17.3 -9.6,32.3 -24.7,33.2"
           style="fill:#ffffff;fill-opacity:1;fill-rule:nonzero;stroke:none"
           id="path1514"
           inkscape:connector-curvature="0" />
        <path
           d="m 15824.8,7871.5 c -17.3,-1.5 -30.4,-14.1 -29.6,-28.2 0.8,-14.1 15.2,-25.2 32.6,-24.7 17.3,0.5 31,13.2 30.2,28.3 -0.9,15.1 -15.9,26.1 -33.2,24.6"
           style="fill:#ffffff;fill-opacity:1;fill-rule:nonzero;stroke:none"
           id="path1516"
           inkscape:connector-curvature="0" />
        <path
           d="m 15743.6,8113.9 c 4.4,-13.4 21.2,-20.2 37.8,-15.2 16.6,5 26.5,20.8 21.8,35.1 -4.8,14.3 -22.2,20.9 -38.5,15 -16.3,-6 -25.6,-21.6 -21.1,-34.9"
           style="fill:#ffffff;fill-opacity:1;fill-rule:nonzero;stroke:none"
           id="path1518"
           inkscape:connector-curvature="0" />
        <path
           d="m 15633.7,8400.5 c -14.1,-10 -19,-27.5 -11.2,-39.2 7.9,-11.8 25.9,-14 40.6,-4.8 14.7,9.2 20.1,27 11.7,39.6 -8.4,12.6 -26.9,14.4 -41.1,4.4"
           style="fill:#ffffff;fill-opacity:1;fill-rule:nonzero;stroke:none"
           id="path1520"
           inkscape:connector-curvature="0" />
        <path
           d="m 15482.1,8616 c -11.4,10 -29.8,7 -40.8,-6.4 -11.1,-13.4 -11.2,-31.5 -0.6,-40.8 10.6,-9.3 28.6,-6.8 40.4,5.9 11.8,12.7 12.3,31.4 1,41.3"
           style="fill:#ffffff;fill-opacity:1;fill-rule:nonzero;stroke:none"
           id="path1522"
           inkscape:connector-curvature="0" />
        <path
           d="m 15238.8,8778.1 c -13.5,6.6 -30.5,-1.1 -37.6,-16.9 -7.2,-15.8 -2.6,-33.4 10,-39.6 12.7,-6.1 29.3,1 37.4,16.3 8.1,15.4 3.8,33.5 -9.8,40.2"
           style="fill:#ffffff;fill-opacity:1;fill-rule:nonzero;stroke:none"
           id="path1524"
           inkscape:connector-curvature="0" />
        <path
           d="m 14961.9,8870.4 c -14.8,2.8 -29.1,-9.1 -31.9,-26.2 -2.7,-17.1 6.3,-32.8 20.1,-35.5 13.9,-2.6 28.1,8.6 31.8,25.6 3.7,16.9 -5.2,33.3 -20,36.1"
           style="fill:#ffffff;fill-opacity:1;fill-rule:nonzero;stroke:none"
           id="path1526"
           inkscape:connector-curvature="0" />
      </g>
      <path
         inkscape:connector-curvature="0"
         id="path1552"
         style="display:inline;fill:#ffffff;fill-opacity:1;fill-rule:nonzero;stroke:none"
         d="m 15017.7,8406.1 c -7.2,0 -13.1,6.1 -13.1,13.6 0,7.6 5.9,13.7 13.1,13.7 7.3,0 13.2,-6.1 13.2,-13.7 0,-7.5 -5.9,-13.6 -13.2,-13.6 z m -259.2,35.5 c -13,0 -23.6,10.9 -23.6,24.4 0,13.5 10.6,24.4 23.6,24.4 13,0 23.6,-10.9 23.6,-24.4 0,-13.5 -10.6,-24.4 -23.6,-24.4 z m -259.2,-35.5 c -7.3,0 -13.2,6.1 -13.2,13.6 0,7.6 5.9,13.7 13.2,13.7 7.3,0 13.1,-6.1 13.1,-13.7 0,-7.5 -5.8,-13.6 -13.1,-13.6 z m 594.1,187.1 c -1.2,32.1 3.7,52.7 11.2,62.2 -8.7,3 -43.5,-13.4 -53.4,-45.5 -10,-32.1 19.8,-50.1 4.9,-79.7 -4.9,96.4 -77,66.9 -78.2,25.7 -0.9,-30.9 29.8,-37.2 25.7,-48.4 14.6,0.3 -3.4,33 6.7,42.5 10,9.4 29.7,-6.9 34.7,-28.7 -8.7,0 -16.2,-23.2 -10.4,-35.4 -4.2,-8 -9.1,-12.7 -13.6,-15.6 -50.1,19.9 -135.7,44.6 -231.3,49.2 -3.4,3.4 -7.7,8.8 -10.8,16.5 13.8,2 21.4,15.7 7.6,30 13.6,-1.1 28.5,10.5 6.2,25.9 -3.8,16.7 8.7,41.7 18,39.5 9.3,-2.2 11.6,-8.8 5.5,-21 -6.1,-12.1 -7.4,-28.9 4.4,-34.6 -4.3,11 5.6,16.1 21.7,25.1 16.2,9 31,77.1 -16.3,90.1 -18.4,5 -32.1,-18.1 -32.1,-18.1 5,30.8 -34.8,70.8 -35.4,91.3 -0.6,-20.5 -40.4,-60.5 -35.4,-91.3 0,0 -13.6,23.1 -32.1,18.1 -47.3,-13 -32.5,-81.1 -16.3,-90.1 16.1,-9 26,-14.1 21.7,-25.1 11.8,5.7 10.6,22.5 4.4,34.6 -6.1,12.2 -3.8,18.8 5.5,21 9.4,2.2 21.8,-22.8 18.1,-39.5 -22.4,-15.4 -7.5,-27 6.1,-25.9 -13.8,-14.3 -6.1,-28 7.6,-30 -3.1,-7.7 -7.4,-13.1 -10.8,-16.5 -99.7,-4.8 -188.5,-31.4 -237.5,-51.7 -5.3,2.2 -12.5,7.1 -18.3,18.1 5.8,12.2 -1.7,35.4 -10.4,35.4 5,21.8 24.7,38.1 34.7,28.7 10.1,-9.5 -7.9,-42.2 6.7,-42.5 -4.1,11.2 26.7,17.5 25.7,48.4 -1.2,41.2 -73.3,70.7 -78.2,-25.7 -14.9,29.6 14.9,47.6 4.9,79.7 -9.9,32.1 -44.7,48.5 -53.4,45.5 7.5,-9.5 12.4,-30.1 11.2,-62.2 -1.2,-32.1 12.5,-54.5 28,-70.3 -3.2,-14.5 -1.5,-34.4 16.3,-43.1 1,-11.5 0,-21.8 -2.1,-29.2 -1.8,-1.2 -3.2,-2.3 -4.1,-3.2 -14.4,-14.7 7.9,-23.2 7.9,-23.2 0,0 6.4,-30.8 6.7,-46.9 -8.1,-4.5 -22.4,-15.4 3.9,-24.6 26.3,16.7 117.3,60.7 289.2,60.7 157.2,0 262.9,-44 289.2,-60.7 26.3,9.2 12,20.1 3.9,24.6 0.3,16.1 6.7,46.9 6.7,46.9 0,0 22.3,8.5 7.9,23.2 -2.3,2.4 -8,5.9 -16.5,10.2 -1,6.4 -1.3,13.9 -0.6,22.2 17.8,8.7 19.5,28.6 16.3,43.1 15.5,15.8 29.2,38.2 28,70.3" />
      <g
         id="g5204"
         style="display:inline;fill:#ffffff">
        <path
           d="m 14754.3,7399.9 -10.2,184.6 -163.9,-85.6 154.9,101.2 -156.1,99.2 165,-83.6 7.8,184.8 10.2,-184.6 163.9,85.5 -154.8,-101.1 156.1,-99.2 -165,83.6 -7.9,-184.8"
           style="fill:#ffffff;fill-opacity:1;fill-rule:nonzero;stroke:none"
           id="path1554"
           inkscape:connector-curvature="0" />
        <path
           d="m 14601,7332.9 152.4,210.9 -0.4,56.4 z m 42.2,65.7 105.7,185.8 0.3,-39.2 -106,-146.6"
           style="fill:#ffffff;fill-opacity:1;fill-rule:nonzero;stroke:none"
           id="path1556"
           inkscape:connector-curvature="0" />
        <path
           d="M 14753,7600.2 Z"
           style="fill:#ffffff;fill-opacity:1;fill-rule:nonzero;stroke:none"
           id="path1558"
           inkscape:connector-curvature="0" />
        <path
           d="m 14753,7600.2 v 0 l 0.4,-56.4 v 0 l 155.1,-208.9 -155.5,265.3 v 0"
           style="fill:#ffffff;fill-opacity:1;fill-rule:nonzero;stroke:none"
           id="path1560"
           inkscape:connector-curvature="0" />
        <path
           d="m 14753,7600.2 -48.6,-28.5 v 0 L 14601,7332.9 v 0 l 152,267.3 v 0"
           style="fill:#ffffff;fill-opacity:1;fill-rule:nonzero;stroke:none"
           id="path1562"
           inkscape:connector-curvature="0" />
        <path
           d="m 14445.6,7598.3 258.8,-26.6 48.6,28.5 z m 77.9,-3.8 213.8,1.4 -33.8,-19.9 -180,18.5"
           style="fill:#ffffff;fill-opacity:1;fill-rule:nonzero;stroke:none"
           id="path1564"
           inkscape:connector-curvature="0" />
        <path
           d="M 14753,7600.2 Z"
           style="fill:#ffffff;fill-opacity:1;fill-rule:nonzero;stroke:none"
           id="path1566"
           inkscape:connector-curvature="0" />
        <path
           d="M 14753,7600.2 Z"
           style="fill:#ffffff;fill-opacity:1;fill-rule:nonzero;stroke:none"
           id="path1568"
           inkscape:connector-curvature="0" />
        <path
           d="m 14753,7600.2 v 0 0 0 0"
           style="fill:#ffffff;fill-opacity:1;fill-rule:nonzero;stroke:none"
           id="path1570"
           inkscape:connector-curvature="0" />
        <path
           d="m 14597.6,7865.5 106.4,-237.4 49,-27.9 v 0 z m 35.8,-69.4 108,-184.4 -34,19.4 -74,165"
           style="fill:#ffffff;fill-opacity:1;fill-rule:nonzero;stroke:none"
           id="path1572"
           inkscape:connector-curvature="0" />
        <path
           d="m 14753,7600.2 v 0 0 0 0"
           style="fill:#ffffff;fill-opacity:1;fill-rule:nonzero;stroke:none"
           id="path1574"
           inkscape:connector-curvature="0" />
        <path
           d="M 14753,7600.2 Z"
           style="fill:#ffffff;fill-opacity:1;fill-rule:nonzero;stroke:none"
           id="path1578"
           inkscape:connector-curvature="0" />
        <path
           d="M 14753,7600.2 Z"
           style="fill:#ffffff;fill-opacity:1;fill-rule:nonzero;stroke:none"
           id="path1580"
           inkscape:connector-curvature="0" />
        <path
           d="m 14753,7600.2 -49,27.9 -258.4,-29.8 307.4,1.9 v 0"
           style="fill:#ffffff;fill-opacity:1;fill-rule:nonzero;stroke:none"
           id="path1582"
           inkscape:connector-curvature="0" />
        <path
           d="m 14752.7,7656.6 -155.1,208.9 v 0 l 155.4,-265.3 -0.3,56.4"
           style="fill:#ffffff;fill-opacity:1;fill-rule:nonzero;stroke:none"
           id="path1584"
           inkscape:connector-curvature="0" />
        <path
           d="M 14753,7600.2 Z"
           style="fill:#ffffff;fill-opacity:1;fill-rule:nonzero;stroke:none"
           id="path1586"
           inkscape:connector-curvature="0" />
        <path
           d="m 14752.7,7656.6 0.3,-56.4 v 0 l 152.1,267.2 v 0 z m 4.2,-1.4 106,146.6 -105.7,-185.8 -0.3,39.2"
           style="fill:#ffffff;fill-opacity:1;fill-rule:nonzero;stroke:none"
           id="path1588"
           inkscape:connector-curvature="0" />
        <path
           d="m 14753,7600.2 49.1,-27.9 258.4,29.8 -307.5,-1.9 v 0"
           style="fill:#ffffff;fill-opacity:1;fill-rule:nonzero;stroke:none"
           id="path1592"
           inkscape:connector-curvature="0" />
        <path
           d="m 14753,7600.2 155.5,-265.3 v 0 l -106.4,237.4 z m 11.7,-11.5 34.1,-19.4 73.9,-165 -108,184.4"
           style="fill:#ffffff;fill-opacity:1;fill-rule:nonzero;stroke:none"
           id="path1594"
           inkscape:connector-curvature="0" />
        <path
           d="m 14801.7,7628.7 v 0 l 103.4,238.7 -152.1,-267.2 48.7,28.5"
           style="fill:#ffffff;fill-opacity:1;fill-rule:nonzero;stroke:none"
           id="path1598"
           inkscape:connector-curvature="0" />
        <path
           d="m 14753,7600.2 307.5,1.9 -258.8,26.6 z m 15.8,4.3 33.8,19.8 180,-18.4 -213.8,-1.4"
           style="fill:#ffffff;fill-opacity:1;fill-rule:nonzero;stroke:none"
           id="path1600"
           inkscape:connector-curvature="0" />
      </g>
      <g
         id="g5181"
         style="display:inline;fill:#ffffff">
        <path
           d="m 15213.2,8060.3 h -920.3 v 18.3 h 920.3 v -18.3"
           style="fill:#ffffff;fill-opacity:1;fill-rule:nonzero;stroke:none"
           id="path1528"
           inkscape:connector-curvature="0" />
        <path
           d="m 15213.2,7890.2 h -920.3 v 18.4 h 920.3 v -18.4"
           style="fill:#ffffff;fill-opacity:1;fill-rule:nonzero;stroke:none"
           id="path1530"
           inkscape:connector-curvature="0" />
        <path
           d="m 14322.8,7926.7 v 115.2 h 11 v -103 h 41.7 v -12.2 h -52.7"
           style="fill:#ffffff;fill-opacity:1;fill-rule:nonzero;stroke:none"
           id="path1532"
           inkscape:connector-curvature="0" />
        <path
           d="m 14398.2,7984.5 c 0,-15.6 2.8,-27.5 8.2,-35.5 5.5,-8.1 13.4,-12.1 23.8,-12.1 10.4,0 18.4,4 23.7,12 5.3,8.1 8,19.9 8,35.6 0,15.5 -2.7,27.2 -8,35.2 -5.3,8.1 -13.2,12.1 -23.6,12.1 -10.5,0 -18.4,-4.1 -23.9,-12.1 -5.4,-8.1 -8.2,-19.8 -8.2,-35.2 z m 75.3,0 c 0,-18.5 -3.8,-33 -11.4,-43.5 -7.7,-10.6 -18.3,-15.9 -31.9,-15.9 -14,0 -24.7,5.2 -32.3,15.6 -7.5,10.4 -11.3,25 -11.3,43.9 0,18.8 3.8,33.3 11.4,43.7 7.6,10.3 18.3,15.4 32.3,15.4 13.6,0 24.2,-5.2 31.8,-15.7 7.6,-10.5 11.4,-25 11.4,-43.5"
           style="fill:#ffffff;fill-opacity:1;fill-rule:nonzero;stroke:none"
           id="path1534"
           inkscape:connector-curvature="0" />
        <path
           d="m 14505.6,7986.1 h 15.1 c 7.7,0 13.4,1.9 17,5.7 3.7,3.7 5.5,9.4 5.5,16.9 0,7.6 -1.9,13.1 -5.6,16.4 -3.6,3.4 -9.6,5.1 -17.7,5.1 h -14.3 z m 0,-11.5 v -47.9 h -11 v 115.2 h 25.9 c 11.6,0 20.2,-2.7 25.7,-8.1 5.6,-5.4 8.3,-13.5 8.3,-24.4 0,-15.3 -6.3,-25.5 -19,-30.9 l 25.7,-51.8 h -13 l -22.9,47.9 h -19.7"
           style="fill:#ffffff;fill-opacity:1;fill-rule:nonzero;stroke:none"
           id="path1536"
           inkscape:connector-curvature="0" />
        <path
           d="m 14629.2,7926.7 h -52.7 v 115.2 h 52.7 V 8030 h -41.7 v -37.1 h 39.1 v -11.8 h -39.1 v -42.4 h 41.7 v -12"
           style="fill:#ffffff;fill-opacity:1;fill-rule:nonzero;stroke:none"
           id="path1538"
           inkscape:connector-curvature="0" />
        <path
           d="m 14691.9,7926.7 -32,102.1 h -0.6 c 0.6,-8 0.9,-17.7 0.9,-28.8 v -73.3 h -10.1 v 115.2 h 16.5 l 30,-95 h 0.5 l 30.2,95 h 16.4 v -115.2 h -11 v 74.3 c 0,8.5 0.3,17.7 0.9,27.7 h -0.5 l -32.3,-102 h -8.9"
           style="fill:#ffffff;fill-opacity:1;fill-rule:nonzero;stroke:none"
           id="path1540"
           inkscape:connector-curvature="0" />
        <path
           d="m 14804,7926.7 v 115.2 h 11 v -115.2 h -11"
           style="fill:#ffffff;fill-opacity:1;fill-rule:nonzero;stroke:none"
           id="path1542"
           inkscape:connector-curvature="0" />
        <path
           d="m 14851.9,7983.5 h 9.9 c 9.8,0 16.8,2 21.2,5.8 4.3,3.8 6.5,10 6.5,18.4 0,7.6 -2.1,13.3 -6.2,17 -4,3.8 -10.4,5.6 -19.1,5.6 h -12.3 z m 49,24.9 c 0,-11.7 -3.3,-20.7 -9.8,-27 -6.6,-6.2 -15.9,-9.4 -28.1,-9.4 h -11.1 v -45.3 h -11 v 115.2 h 24.5 c 23.6,0 35.5,-11.2 35.5,-33.5"
           style="fill:#ffffff;fill-opacity:1;fill-rule:nonzero;stroke:none"
           id="path1544"
           inkscape:connector-curvature="0" />
        <path
           d="m 14974,7957.4 c 0,-10.2 -3,-18.1 -9.1,-23.7 -6,-5.7 -14.2,-8.6 -24.5,-8.6 -11.2,0 -19.9,1.8 -25.9,5.3 v 12.9 c 3.9,-2 8.1,-3.5 12.7,-4.7 4.5,-1.1 9.1,-1.7 13.6,-1.7 7.3,0 12.8,1.7 16.5,5.1 3.7,3.4 5.6,8.1 5.6,14.1 0,4 -0.7,7.3 -2,9.8 -1.3,2.6 -3.5,4.9 -6.6,7.1 -3.1,2.1 -7.8,4.6 -14.1,7.3 -8.7,3.8 -15,8.4 -18.8,13.6 -3.8,5.3 -5.7,12.1 -5.7,20.6 0,8.9 2.8,15.9 8.2,21.2 5.5,5.3 12.8,7.9 21.8,7.9 9.4,0 18,-2.1 25.9,-6.3 l -3.4,-11.7 c -7.8,4 -15.4,6 -22.8,6 -5.8,0 -10.4,-1.5 -13.6,-4.6 -3.3,-3 -4.9,-7.2 -4.9,-12.7 0,-3.9 0.6,-7.2 1.8,-9.8 1.2,-2.5 3.2,-4.9 6.1,-7 2.8,-2.1 7.2,-4.5 13.1,-7 9.9,-4.3 16.8,-9 20.5,-13.9 3.7,-4.9 5.6,-11.3 5.6,-19.2"
           style="fill:#ffffff;fill-opacity:1;fill-rule:nonzero;stroke:none"
           id="path1546"
           inkscape:connector-curvature="0" />
        <path
           d="m 15064.7,8041.9 v -74.5 c 0,-13.1 -3.3,-23.5 -9.8,-31 -6.5,-7.5 -15.4,-11.3 -26.8,-11.3 -11.4,0 -20.2,3.8 -26.4,11.4 -6.2,7.6 -9.4,18 -9.4,31.2 v 74.2 h 11 v -75.2 c 0,-9.6 2.2,-16.9 6.5,-22.1 4.3,-5.1 10.6,-7.7 19,-7.7 8,0 14.1,2.6 18.4,7.7 4.3,5.2 6.5,12.6 6.5,22.3 v 75 h 11"
           style="fill:#ffffff;fill-opacity:1;fill-rule:nonzero;stroke:none"
           id="path1548"
           inkscape:connector-curvature="0" />
        <path
           d="m 15131.5,7926.7 -32,102.1 h -0.6 c 0.7,-8 1,-17.7 1,-28.8 v -73.3 h -10.2 v 115.2 h 16.6 l 29.9,-95 h 0.5 l 30.2,95 h 16.4 v -115.2 h -11 v 74.3 c 0,8.5 0.3,17.7 0.9,27.7 h -0.5 l -32.3,-102 h -8.9"
           style="fill:#ffffff;fill-opacity:1;fill-rule:nonzero;stroke:none"
           id="path1550"
           inkscape:connector-curvature="0" />
        <path
           d="m 14599.6,7866.2 -3.8,-1.7 v 0 l 3.7,1.9 -1.8,-0.9 1.9,0.7"
           style="fill:#ffffff;fill-opacity:1;fill-rule:nonzero;stroke:none"
           id="path1576"
           inkscape:connector-curvature="0" />
        <path
           d="M 14597.6,7865.5 Z"
           style="fill:#ffffff;fill-opacity:1;fill-rule:nonzero;stroke:none"
           id="path1590"
           inkscape:connector-curvature="0" />
        <path
           d="m 14907.1,7866.8 v 0 l -2,0.6 1.9,-0.9 v 0 l -1.9,0.9 -2,0.7 2,-0.7 -1.9,1 1.9,-1 2,-0.6"
           style="fill:#ffffff;fill-opacity:1;fill-rule:nonzero;stroke:none"
           id="path1596"
           inkscape:connector-curvature="0" />
        <path
           d="m 14907.1,7866.8 v 0 l -4,1.3 z"
           style="fill:#ffffff;fill-opacity:1;fill-rule:nonzero;stroke:none"
           id="path1602"
           inkscape:connector-curvature="0" />
      </g>
    </g>
  </g>
</svg>
